<svg width="37" height="50" viewBox="0 0 37 50" fill="none" xmlns="http://www.w3.org/2000/svg">
<path d="M33.7283 8.92575L34.5774 6.05253L32.8397 7.09913C31.1513 8.10624 29.2555 8.7184 27.3006 8.87638C28.0509 5.66746 26.5107 2.35979 23.5782 0.868878L21.8404 0L16.0644 8.92575H4.73934C2.12283 8.92575 0 11.0486 0 13.6651V45.2607C0 47.8772 2.12283 50 4.73934 50H36.3349V8.92575H33.7283ZM31.9609 9.32069L23.8053 36.878C21.09 38.7638 17.9502 39.9585 14.6623 40.3633L26.7378 10.4858C28.5446 10.4167 30.312 10.0217 31.9609 9.32069ZM22.3934 2.05371L22.8574 2.29068C25.4246 3.594 26.5798 6.63507 25.5134 9.31082L13.6058 38.7638C13.4281 34.1726 10.7721 30.0355 6.67457 27.9621L5.88468 27.5671L22.3934 2.05371ZM1.57978 13.6651C1.57978 11.9175 2.99171 10.5055 4.73934 10.5055H15.0474L3.594 28.1991L5.96367 29.3839C10.1007 31.4771 12.4901 35.9202 11.9471 40.5213H4.73934C3.57425 40.5213 2.44866 40.9558 1.57978 41.7358V13.6651ZM34.7551 44.4708H4.73934V46.0506H34.7551V48.4202H4.73934C2.99171 48.4202 1.57978 47.0083 1.57978 45.2607C1.57978 43.513 2.99171 42.1011 4.73934 42.1011H34.7551V44.4708ZM34.7551 40.5213H20.3495C21.8997 39.8993 23.361 39.0995 24.7334 38.1517H33.1754V36.5719H25.5431L26.2441 34.2022H33.1754V32.6224H26.718L27.419 30.2528H33.1754V28.673H27.8831L28.5841 26.3033H33.1754V24.7235H29.0482L29.7492 22.3539H33.1754V20.7741H30.2231L30.9242 18.4044H33.1754V16.8246H31.3882L33.2642 10.5055H34.7551V40.5213Z" fill="currentColor" />
</svg>
