<svg width="16" height="16" viewBox="0 0 16 16" fill="none" xmlns="http://www.w3.org/2000/svg">
<path d="M7.99997 0C3.58168 0 0 3.58168 0 8.00026C0 12.4183 3.58168 16 7.99997 16C12.4183 16 16 12.4183 16 8.00026C16 3.58168 12.4183 0 7.99997 0ZM7.99793 3.40027C8.66779 3.40027 9.21116 3.94345 9.21116 4.61351C9.21116 5.28366 8.66779 5.82677 7.99793 5.82677C7.32781 5.82677 6.78441 5.28366 6.78441 4.61351C6.78437 3.94345 7.32781 3.40027 7.99793 3.40027ZM10.082 12.5082C10.082 12.6295 9.98375 12.7278 9.86271 12.7278H9.15699H6.83851H6.13335C6.01231 12.7278 5.91408 12.6295 5.91408 12.5082V12.0581C5.91408 11.9369 6.01228 11.8387 6.13335 11.8387H6.83851V7.56956H6.11166C5.99062 7.56956 5.89232 7.47126 5.89232 7.34999V6.89937C5.89232 6.77814 5.99062 6.67987 6.11166 6.67987H6.83851H8.93775H8.94484C9.06578 6.67987 9.16411 6.77814 9.16411 6.89937V11.8386H9.86275C9.98375 11.8386 10.0821 11.9369 10.0821 12.0581V12.5082H10.082Z" fill="currentColor"/>
</svg>
