<svg width="16" height="16" viewBox="0 0 16 16" fill="none" xmlns="http://www.w3.org/2000/svg">
<path fill-rule="evenodd" clip-rule="evenodd" d="M12.4597 14.4448C10.5877 14.4448 9.06555 12.9184 9.06555 11.0411C9.06555 9.16374 10.5888 7.63734 12.4597 7.63734C14.3317 7.63734 15.8549 9.16374 15.8549 11.0411C15.8549 12.9184 14.3317 14.4448 12.4597 14.4448ZM12.4597 9.43254C11.5754 9.43254 10.8554 10.1536 10.8554 11.0411C10.8554 11.9285 11.5754 12.6496 12.4597 12.6496C13.345 12.6496 14.064 11.9285 14.064 11.0411C14.064 10.1536 13.345 9.43254 12.4597 9.43254ZM5.44849 14.9717C5.29062 15.2832 4.97595 15.4624 4.65062 15.4624C4.51409 15.4624 4.37542 15.4315 4.24529 15.3653C3.80475 15.1403 3.62875 14.5995 3.85275 14.1579L10.5098 1.02827C10.7338 0.585602 11.2725 0.409602 11.713 0.634669C12.1536 0.859736 12.3296 1.39947 12.1056 1.84107L5.44849 14.9717ZM3.53915 8.36267C1.66715 8.36267 0.14502 6.8352 0.14502 4.95894C0.14502 3.0816 1.66715 1.55414 3.53915 1.55414C5.41115 1.55414 6.93329 3.0816 6.93329 4.95894C6.93329 6.8352 5.41115 8.36267 3.53915 8.36267ZM3.53915 3.34934C2.65382 3.34934 1.93489 4.07147 1.93489 4.95894C1.93489 5.84534 2.65382 6.56747 3.53915 6.56747C4.42342 6.56747 5.14342 5.84534 5.14342 4.95894C5.14342 4.07147 4.42342 3.34934 3.53915 3.34934Z" fill="currentColor"/>
</svg>
