<svg width="10" height="11" viewBox="0 0 10 11" fill="none" xmlns="http://www.w3.org/2000/svg">
<path fill-rule="evenodd" clip-rule="evenodd" d="M9.91156 7.77431C9.54608 7.08348 8.19848 6.29431 8.19848 6.29431C7.89308 6.11931 7.52593 6.10014 7.35153 6.41098C7.35153 6.41098 6.91346 6.93598 6.80248 7.01181C6.29348 7.35681 5.82202 7.34264 5.3464 6.86598L3.13433 4.65348C2.65871 4.17931 2.64536 3.70764 2.98997 3.19848C3.06674 3.08681 3.59076 2.64848 3.59076 2.64848C3.90034 2.47431 3.88114 2.10681 3.70758 1.80098C3.70758 1.80098 2.91654 0.452644 2.22647 0.0876438C1.93192 -0.0673562 1.57145 -0.0131896 1.33697 0.22181L0.847997 0.710977C-0.700702 2.26098 0.0619652 4.00848 1.61066 5.55764L4.44271 8.39098C5.99058 9.94014 7.74121 10.7035 9.29074 9.15431L9.77888 8.66598C10.0134 8.42931 10.0676 8.06848 9.91156 7.77431Z" fill="currentColor"/>
</svg>
