<svg width="40" height="40" viewBox="0 0 40 40" fill="none" xmlns="http://www.w3.org/2000/svg">
<path d="M20 0C8.972 0 0 8.972 0 20C0 31.028 8.972 40 20 40C31.028 40 40 31.028 40 20C40 8.972 31.028 0 20 0ZM30.3753 20.5507L15.7087 30.5507C15.596 30.6273 15.4647 30.6667 15.3333 30.6667C15.2267 30.6667 15.1193 30.6413 15.022 30.5893C14.8033 30.474 14.6667 30.2473 14.6667 30V10C14.6667 9.75267 14.8033 9.526 15.022 9.41067C15.2407 9.29467 15.5047 9.31067 15.7093 9.44933L30.376 19.4493C30.5573 19.5733 30.6667 19.7793 30.6667 20C30.6667 20.2207 30.5573 20.4267 30.3753 20.5507Z" fill="#4CAF50"/>
</svg>
