<svg width="7" height="12" viewBox="0 0 7 12" fill="none" xmlns="http://www.w3.org/2000/svg">
<path fill-rule="evenodd" clip-rule="evenodd" d="M7 6.00054C7 5.90243 6.95255 5.79355 6.88137 5.7224L1.27577 0.119666C1.20351 0.046357 1.09567 0 0.997535 0C0.903713 0 0.794793 0.046357 0.72146 0.119666L0.119704 0.720151C0.0496072 0.792382 0 0.901267 0 0.996137C0 1.09424 0.0496072 1.20313 0.119704 1.27536L4.8464 6.00054L0.119704 10.7257C0.0496072 10.798 0 10.9058 0 11.0028C0 11.1127 0.0496072 11.2065 0.119704 11.2788L0.72146 11.8803C0.794793 11.9536 0.903713 12 0.997535 12C1.09567 12 1.20351 11.9536 1.27577 11.8803L6.88137 6.27652C6.95255 6.20645 7 6.09541 7 6.00054Z" fill="#8D8D8D"/>
</svg>
