<svg width="16" height="16" viewBox="0 0 16 16" fill="none" xmlns="http://www.w3.org/2000/svg">
<path fill-rule="evenodd" clip-rule="evenodd" d="M15.8047 14.8635L11.9577 11.0164C12.9112 9.85455 13.4861 8.3652 13.4861 6.74264C13.4861 3.01977 10.4654 0 6.74354 0C3.01771 0 0 3.01977 0 6.74264C0 10.4655 3.01771 13.4853 6.74354 13.4853C8.36607 13.4853 9.85139 12.9134 11.0142 11.9609L14.8602 15.8039C15.1216 16.0654 15.5433 16.0654 15.8047 15.8039C16.0651 15.5455 16.0651 15.1219 15.8047 14.8635ZM6.74354 12.1432C3.76188 12.1432 1.33909 9.72034 1.33909 6.74264C1.33909 3.76494 3.76188 1.33811 6.74354 1.33811C9.72119 1.33811 12.147 3.76494 12.147 6.74264C12.147 9.72034 9.72119 12.1432 6.74354 12.1432Z" fill="currentColor"/>
</svg>
