<svg width="16" height="16" viewBox="0 0 16 16" fill="none" xmlns="http://www.w3.org/2000/svg">
<path d="M7.44524 0.70723C7.54982 0.495986 7.76521 0.362061 8.00061 0.362061C8.23602 0.362061 8.45175 0.495986 8.55599 0.70723L10.548 4.74399C10.6381 4.92659 10.8127 5.05326 11.0146 5.0826L15.4694 5.7298C15.7031 5.76362 15.8964 5.92723 15.9692 6.15125C16.042 6.37526 15.9813 6.62172 15.8125 6.78602L12.5893 9.92844C12.4433 10.0707 12.3767 10.2757 12.4108 10.4766L13.1716 14.9137C13.211 15.1464 13.116 15.3811 12.9248 15.5198C12.7339 15.6579 12.4816 15.6762 12.2724 15.5671L8.2878 13.472C8.10762 13.377 7.89188 13.377 7.71136 13.472L3.72672 15.5668C3.51824 15.6762 3.26523 15.6583 3.07435 15.5198C2.88347 15.3814 2.7882 15.1464 2.8279 14.9137L3.58865 10.4766C3.62317 10.2757 3.55621 10.0707 3.4102 9.92844L0.187005 6.78602C0.0182166 6.62137 -0.0425333 6.37526 0.0302975 6.15125C0.103128 5.92723 0.296769 5.76362 0.530449 5.7298L4.9859 5.0826C5.18748 5.05326 5.36214 4.92659 5.45222 4.74365L7.44524 0.70723Z" fill="currentColor"/>
</svg>
