<svg width="24" height="33" viewBox="0 0 24 33" fill="none" xmlns="http://www.w3.org/2000/svg">
<path fill-rule="evenodd" clip-rule="evenodd" d="M16 1.65517H22.9833C23.5429 1.65517 24 2.11232 24 2.67192V5.86404H0V2.67192C0 2.11232 0.457143 1.65517 1.01675 1.65517H7.99212V0.338916C7.99212 0.149754 8.14187 0 8.33103 0H15.6611C15.8502 0 16 0.149754 16 0.338916V1.65517ZM4.42955 32.1971C3.56256 32.1971 2.8532 31.5114 2.81379 30.6444L1.73399 7.84241H22.2502L21.1704 30.6444C21.1389 31.5114 20.4217 32.1971 19.5547 32.1971H4.42955ZM16.0788 12.8473C15.7084 12.8473 15.4167 13.139 15.4167 13.5015V26.5301C15.4167 26.8927 15.7163 27.1843 16.0788 27.1843H17.135C17.5054 27.1843 17.797 26.8927 17.797 26.5301V13.5015C17.797 13.139 17.4975 12.8473 17.135 12.8473H16.0788ZM11.468 12.8473C11.1054 12.8473 10.8138 13.139 10.8138 13.5015V26.5301C10.8138 26.8927 11.1054 27.1843 11.468 27.1843H12.5241C12.8867 27.1843 13.1783 26.8927 13.1783 26.5301V13.5015C13.1783 13.139 12.8867 12.8473 12.5241 12.8473H11.468ZM6.86502 12.8473C6.50246 12.8473 6.21083 13.139 6.21083 13.5015V26.5301C6.21083 26.8927 6.50246 27.1843 6.86502 27.1843H7.92118C8.28374 27.1843 8.57537 26.8927 8.57537 26.5301V13.5015C8.57537 13.139 8.28374 12.8473 7.92118 12.8473H6.86502Z" fill="currentColor"/>
</svg>
