<svg width="17" height="13" viewBox="0 0 17 13" fill="none" xmlns="http://www.w3.org/2000/svg">
<path fill-rule="evenodd" clip-rule="evenodd" d="M16.003 1.53854C15.414 1.7998 14.781 1.97598 14.117 2.05506C14.795 1.64865 15.315 1.00601 15.561 0.239239C14.927 0.615616 14.224 0.888889 13.476 1.03504C12.877 0.398398 12.024 0 11.079 0C9.266 0 7.796 1.46947 7.796 3.28128C7.796 3.53854 7.825 3.78879 7.881 4.02903C5.153 3.89289 2.734 2.58659 1.114 0.5996C0.831 1.08408 0.669 1.64865 0.669 2.25025C0.669 3.38839 1.25 4.39339 2.13 4.98198C1.592 4.96497 1.085 4.81782 0.643 4.57057C0.643 4.58458 0.643 4.5986 0.643 4.61261C0.643 6.2022 1.775 7.52853 3.276 7.83083C3.001 7.90591 2.711 7.94595 2.412 7.94595C2.2 7.94595 1.994 7.92493 1.794 7.88689C2.212 9.19019 3.424 10.1401 4.861 10.1662C3.737 11.047 2.322 11.5716 0.783 11.5716C0.519 11.5716 0.256 11.5556 0 11.5255C1.452 12.4565 3.179 13 5.032 13C11.071 13 14.374 7.999 14.374 3.66166C14.374 3.51952 14.371 3.37738 14.364 3.23724C15.006 2.77477 15.563 2.1962 16.003 1.53854Z" fill="currentColor"/>
</svg>
