<svg width="16" height="10" viewBox="0 0 16 10" fill="none" xmlns="http://www.w3.org/2000/svg">
<path fill-rule="evenodd" clip-rule="evenodd" d="M7.82816 9.37382H8.78452C8.78452 9.37382 9.0735 9.34055 9.22034 9.17705C9.35683 9.0259 9.35212 8.74358 9.35212 8.74358C9.35212 8.74358 9.3333 7.42036 9.92914 7.22548C10.5165 7.03346 11.2705 8.50403 12.0697 9.06963C12.674 9.49835 13.1324 9.40424 13.1324 9.40424L15.2691 9.37382C15.2691 9.37382 16.3874 9.30253 15.8574 8.39661C15.8141 8.32247 15.5487 7.7255 14.2685 6.50018C12.9281 5.21783 13.1079 5.42601 14.7222 3.20733C15.705 1.85654 16.0975 1.03143 15.9751 0.67876C15.8584 0.34225 15.1355 0.430655 15.1355 0.430655L12.7295 0.445865C12.7295 0.445865 12.5507 0.421149 12.4189 0.5029C12.289 0.58275 12.2061 0.769066 12.2061 0.769066C12.2061 0.769066 11.8259 1.81472 11.3176 2.70352C10.2464 4.57904 9.81807 4.67885 9.64298 4.56193C9.2354 4.29101 9.33706 3.4716 9.33706 2.88984C9.33706 1.07135 9.60439 0.313733 8.81652 0.11696C8.55484 0.0523198 8.36282 0.00954323 7.69449 0.0019385C6.83603 -0.00661683 6.10934 0.00479028 5.698 0.21297C5.42408 0.350806 5.21323 0.658797 5.34124 0.676859C5.50032 0.698722 5.86084 0.776671 6.05098 1.04474C6.2976 1.39075 6.28913 2.16739 6.28913 2.16739C6.28913 2.16739 6.43127 4.30717 5.95874 4.57333C5.63399 4.75585 5.18969 4.38321 4.23427 2.68166C3.7448 1.80996 3.37581 0.846064 3.37581 0.846064C3.37581 0.846064 3.30427 0.666402 3.1772 0.569442C3.02282 0.453469 2.80726 0.415446 2.80726 0.415446L0.521788 0.431606C0.521788 0.431606 0.178214 0.441112 0.0520797 0.595108C-0.0599349 0.731993 0.043608 1.01527 0.043608 1.01527C0.043608 1.01527 1.83302 5.33286 3.85964 7.50971C5.71776 9.505 7.82816 9.37382 7.82816 9.37382Z" fill="currentColor"/>
</svg>
