<svg width="152" height="15" viewBox="0 0 152 15" fill="none" xmlns="http://www.w3.org/2000/svg">
<path d="M8.49023 10.2139H4.3418L3.5332 13H0.246094L4.50879 0.317383H8.45508L12.7178 13H9.29004L8.49023 10.2139ZM4.96582 7.89355H7.85742L6.45117 3.00684H6.38086L4.96582 7.89355ZM22.0518 14.0635L21.2871 12.8945C20.6191 13.1113 19.8896 13.2197 19.0986 13.2197C17.165 13.2197 15.6387 12.6396 14.5195 11.4795C13.3945 10.3076 12.832 8.70215 12.832 6.66309C12.832 4.64746 13.3975 3.04785 14.5283 1.86426C15.6533 0.686523 17.1768 0.0976562 19.0986 0.0976562C21.0146 0.0976562 22.5352 0.686523 23.6602 1.86426C24.7852 3.04785 25.3477 4.64746 25.3477 6.66309C25.3477 8.85449 24.7236 10.498 23.4756 11.5938L25.0488 14.0635H22.0518ZM19.0986 10.6445C19.3506 10.6445 19.5732 10.6152 19.7666 10.5566L18.4834 8.54395H21.2168L21.498 8.92188C21.8789 8.30664 22.0693 7.55371 22.0693 6.66309C22.0693 5.45605 21.7998 4.48926 21.2607 3.7627C20.7217 3.03613 20.001 2.67285 19.0986 2.67285C18.1963 2.67285 17.4727 3.03613 16.9277 3.7627C16.3887 4.48926 16.1191 5.45605 16.1191 6.66309C16.1191 7.87012 16.3887 8.83691 16.9277 9.56348C17.4727 10.2842 18.1963 10.6445 19.0986 10.6445ZM30.1553 8.15723C30.1553 8.90137 30.3486 9.47852 30.7354 9.88867C31.1279 10.3047 31.6816 10.5127 32.3965 10.5127C33.1113 10.5127 33.6621 10.3047 34.0488 9.88867C34.4355 9.47852 34.6289 8.90137 34.6289 8.15723V0.317383H37.8545V8.5C37.8545 9.92383 37.3564 11.0664 36.3604 11.9277C35.3643 12.7891 34.043 13.2197 32.3965 13.2197C30.7441 13.2197 29.4199 12.7891 28.4238 11.9277C27.4277 11.0664 26.9297 9.92383 26.9297 8.5V0.317383H30.1553V8.15723ZM46.916 10.2139H42.7676L41.959 13H38.6719L42.9346 0.317383H46.8809L51.1436 13H47.7158L46.916 10.2139ZM43.3916 7.89355H46.2832L44.877 3.00684H44.8066L43.3916 7.89355ZM66.2871 13H63.4482V5.08105H63.3867L60.249 12.8682H58.4033L55.2744 5.08105H55.2041V13H52.3652V0.317383H56.0918L59.291 8.46484H59.3613L62.5605 0.317383H66.2871V13ZM76.8955 13H68.2031V0.317383H76.8955V2.91895H71.4287V5.44141H76.5703V7.81445H71.4287V10.3984H76.8955V13ZM90.3867 7.63867C90.3867 9.37305 89.8799 10.7354 88.8662 11.7256C87.8408 12.7217 86.4287 13.2197 84.6299 13.2197C82.667 13.2197 81.1348 12.6426 80.0332 11.4883C78.9199 10.3281 78.3633 8.71094 78.3633 6.63672C78.3633 4.58594 78.917 2.98047 80.0244 1.82031C81.1201 0.671875 82.6289 0.0976562 84.5508 0.0976562C86.0801 0.0976562 87.375 0.507813 88.4355 1.32812C89.4844 2.14844 90.0908 3.20605 90.2549 4.50098H87.0645C86.9062 3.93848 86.6045 3.49609 86.1592 3.17383C85.7139 2.85156 85.1807 2.69043 84.5596 2.69043C83.6455 2.69043 82.9336 3.0332 82.4238 3.71875C81.9082 4.4043 81.6504 5.3623 81.6504 6.59277C81.6504 7.84082 81.9258 8.82812 82.4766 9.55469C83.0273 10.2695 83.7686 10.627 84.7002 10.627C85.4268 10.627 86.0273 10.4307 86.502 10.0381C86.9648 9.64551 87.2197 9.12988 87.2666 8.49121L87.2754 8.29785H84.9551V6.08301H90.3867V7.63867ZM98.9824 10.2139H94.834L94.0254 13H90.7383L95.001 0.317383H98.9473L103.21 13H99.7822L98.9824 10.2139ZM95.458 7.89355H98.3496L96.9434 3.00684H96.873L95.458 7.89355ZM118.354 13H115.515V5.08105H115.453L112.315 12.8682H110.47L107.341 5.08105H107.271V13H104.432V0.317383H108.158L111.357 8.46484H111.428L114.627 0.317383H118.354V13ZM127.811 10.2139H123.662L122.854 13H119.566L123.829 0.317383H127.775L132.038 13H128.61L127.811 10.2139ZM124.286 7.89355H127.178L125.771 3.00684H125.701L124.286 7.89355ZM141.732 13H133.26V0.317383H136.485V10.3984H141.732V13ZM151.682 13H143.209V0.317383H146.435V10.3984H151.682V13Z" fill="#FBFBFB"/>
</svg>
